<svg width="891" height="300" viewBox="0 0 891 300" fill="none" xmlns="http://www.w3.org/2000/svg">
<g clip-path="url(#clip0_9_4)">
<rect width="891" height="300" fill="white"/>
<path d="M176.136 35.0057C125.189 35.5625 81.9864 80.7046 92.3606 119.766C94.1446 120.689 95.8655 121.806 97.5062 123.07C151.601 111.729 204.251 102.597 254.989 84.9387C252.469 78.6942 249.873 70.3085 246.331 66.8807C224.224 43.774 199.376 34.7513 176.137 35.0052L176.136 35.0057ZM269.455 90.255C216.151 110.241 161.365 120.006 105.783 131.519C107.503 133.885 108.899 136.438 109.744 139.139C119.316 139.447 128.828 139.661 138.298 139.792C139.625 133.458 143.982 127.554 151.263 124.68L151.456 124.603L151.655 124.543C153.97 123.833 156.284 123.551 158.502 123.63C160.721 123.707 162.842 124.147 164.768 124.877C168.623 126.339 171.716 128.793 174.287 131.477C176.809 134.11 178.895 137.028 180.624 139.754C213.095 139.208 245.205 137.431 277.384 134.091C277.373 132 277.36 129.946 277.329 127.925C267.597 127.065 256.153 127.732 240.516 132.139C253.598 125.572 263.346 121.412 275.358 121.526C275.949 121.531 276.545 121.547 277.148 121.573C276.89 115.667 276.327 110.04 275.053 104.632C255.817 115.536 239.262 117.564 214.3 119.121C243.099 113.336 259.591 105.892 273.085 98.0405C272.113 95.4014 270.924 92.8084 269.456 90.255H269.455ZM82.6909 127.016C82.3 127.014 82.0317 127.066 81.8597 127.123C79.1333 128.45 76.2716 132.187 74.9703 136.715C73.7005 141.132 74.0703 145.874 75.5344 148.62C78.18 151.133 83.7331 152.154 89.3877 151.09C94.9368 150.045 99.2592 146.844 100.2 145.194C100.221 141.915 97.3399 136.344 92.8972 132.33C90.5583 130.215 87.9351 128.55 85.779 127.704C84.7013 127.281 83.8048 127.094 83.1249 127.035C82.9661 127.021 82.821 127.015 82.6915 127.015L82.6909 127.016ZM158.219 133.48C157.259 133.438 156.227 133.568 155.032 133.912C150.337 135.819 148.717 138.545 148.239 142.75C147.756 147.01 149.173 152.725 152.058 158.049C154.944 163.372 159.24 168.271 163.6 171.213C167.959 174.155 171.906 175.04 175.201 173.97L178.509 183.341C171.23 185.704 163.726 183.396 157.66 179.303C151.593 175.208 146.49 169.229 142.902 162.61C140.67 158.494 139.004 154.119 138.254 149.709C128.825 149.577 119.359 149.366 109.837 149.062C108.597 151.933 106.524 154.195 103.964 155.967C107.3 162.475 111.307 168.604 116.065 174.322L117.554 176.109L117.098 178.354C113.632 195.395 109.147 212.771 95.905 223.739C114.122 252.659 136.498 275.8 182.339 280.147C186.648 265.359 190.451 248.352 217.011 230.843L218.4 229.929L220.083 229.975C243.466 230.624 255.491 226.815 261.134 219.805C263.612 216.727 265.155 212.576 265.818 207.248L243.438 206.81L243.648 196.919L266.114 197.359C265.903 192.514 265.246 187.023 264.153 180.827L263.153 175.152L283.906 174.83C283.253 171.061 281.619 165.83 279.154 160.959C275.589 153.907 270.237 147.272 268.191 145.91L266.974 145.098C238.175 147.762 209.416 149.211 180.401 149.686C176.015 151.842 177.13 151.273 175.922 151.921C173.536 147.838 170.434 142.081 166.687 138.17C164.812 136.214 162.85 134.788 160.973 134.076C160.064 133.732 159.177 133.521 158.217 133.479L158.219 133.48ZM68.1462 155.579C64.1598 163.29 59.8593 172.173 55.248 181.023C50.0543 190.996 44.4788 200.918 38.3426 209.2C33.6763 215.496 28.7142 220.932 23 224.575C28.6546 232.201 33.3112 238.578 37.1331 244.181C39.6233 237.565 42.5148 230.668 45.5794 223.636C51.9942 208.919 59.1295 193.69 64.6998 179.914C67.8126 172.213 70.406 164.927 72.1407 158.56C70.7064 157.761 69.3633 156.774 68.1451 155.577L68.1462 155.579ZM89.9833 161.031C87.4123 161.421 84.7346 161.564 82.0919 161.366C80.2116 168.249 77.4829 175.669 74.3214 183.49C68.6049 197.628 61.4391 212.904 55.1001 227.45C48.7599 241.996 43.2652 255.859 40.8627 266.69C39.6611 272.106 39.2644 276.749 39.6972 280.13C39.7626 280.64 39.8692 281.054 39.9627 281.5C41.738 280.247 43.6688 279.17 45.8615 278.259C51.68 275.844 58.9105 274.133 66.1158 272.897C73.3205 271.662 80.4266 270.943 85.8713 270.777C86.4274 270.761 86.886 270.774 87.4042 270.767C81.4469 238.545 86.158 192.315 89.9839 161.032L89.9833 161.031Z" fill="black"/>
<path d="M317.104 57.088H303.024V54.464H334.064V57.088H319.984V96H317.104V57.088ZM379.351 96V75.008H350.486V96H347.542V54.464H350.486V72.384H379.351V54.464H382.295V96H379.351ZM402.467 96V54.464H421.859V57.024H405.411V72.128H420.26V74.624H405.411V93.312H422.5V96H402.467Z" fill="black"/>
<path d="M330.224 227.272C327.109 225.949 324.016 225.288 320.944 225.288C314.715 225.288 311.6 227.592 311.6 232.2C311.6 234.205 312.304 236.083 313.712 237.832C315.12 239.539 316.827 241.075 318.832 242.44C320.837 243.763 322.843 245.128 324.848 246.536C326.853 247.944 328.56 249.629 329.968 251.592C331.376 253.555 332.08 255.688 332.08 257.992C332.08 261.875 330.779 264.819 328.176 266.824C325.573 268.787 321.968 269.768 317.36 269.768C312.795 269.768 308.891 268.595 305.648 266.248L307.184 263.944C310.256 265.949 313.627 266.952 317.296 266.952C320.965 266.952 323.781 266.227 325.744 264.776C327.707 263.283 328.688 261.149 328.688 258.376C328.688 256.456 327.984 254.643 326.576 252.936C325.168 251.187 323.461 249.629 321.456 248.264C319.451 246.856 317.445 245.427 315.44 243.976C313.435 242.525 311.728 240.797 310.32 238.792C308.912 236.787 308.208 234.632 308.208 232.328C308.208 229.299 309.317 226.909 311.536 225.16C313.797 223.368 316.827 222.472 320.624 222.472C324.464 222.472 328.027 223.24 331.312 224.776L330.224 227.272ZM380.584 269V246.088H349.16V269H346.088V223.24H349.16V243.336H380.584V223.24H383.656V269H380.584ZM404.813 262.92C400.589 258.355 398.477 252.744 398.477 246.088C398.477 239.432 400.589 233.843 404.813 229.32C409.08 224.755 414.456 222.472 420.941 222.472C427.427 222.472 432.803 224.755 437.069 229.32C441.336 233.843 443.47 239.432 443.47 246.088C443.47 252.744 441.336 258.355 437.069 262.92C432.803 267.485 427.427 269.768 420.941 269.768C414.456 269.768 409.08 267.485 404.813 262.92ZM407.117 231.304C403.576 235.272 401.805 240.2 401.805 246.088C401.805 251.976 403.576 256.925 407.117 260.936C410.701 264.947 415.309 266.952 420.941 266.952C426.616 266.952 431.224 264.947 434.765 260.936C438.35 256.925 440.142 251.976 440.142 246.088C440.142 240.2 438.35 235.272 434.765 231.304C431.224 227.293 426.616 225.288 420.941 225.288C415.267 225.288 410.659 227.293 407.117 231.304ZM458.305 269V223.496C461.847 223.155 465.281 222.984 468.609 222.984C473.089 222.984 476.674 224.029 479.361 226.12C482.092 228.211 483.458 231.368 483.458 235.592C483.458 239.773 481.602 243.229 477.889 245.96C474.22 248.648 469.825 249.992 464.705 249.992C464.492 249.992 464.257 249.992 464.001 249.992V247.88C464.172 247.88 464.321 247.88 464.449 247.88C468.673 247.88 472.343 246.771 475.457 244.552C478.572 242.333 480.129 239.453 480.129 235.912C480.129 232.328 479.041 229.747 476.865 228.168C474.689 226.547 471.767 225.736 468.097 225.736C466.177 225.736 463.937 225.821 461.377 225.992V269H458.305Z" fill="black"/>
<path d="M313.424 128.984C317.968 128.6 322.64 128.408 327.44 128.408C332.24 128.408 336.336 129.56 339.728 131.864C343.184 134.168 344.912 137.528 344.912 141.944C344.912 145.272 344.016 148.344 342.224 151.16C340.432 153.976 338.256 156.12 335.696 157.592C339.856 158.808 343.312 160.984 346.064 164.12C348.816 167.256 350.192 170.808 350.192 174.776C350.192 180.28 348.432 184.44 344.912 187.256C341.456 190.072 336.56 191.48 330.224 191.48C323.888 191.48 318.288 191.256 313.424 190.808V128.984ZM322.16 159.512L317.84 159.608V187.16C320.592 187.416 325.04 187.544 331.184 187.544C335.344 187.544 338.768 186.392 341.456 184.088C344.208 181.72 345.584 178.776 345.584 175.256C345.584 171.672 344.208 168.568 341.456 165.944C338.768 163.256 335.248 161.368 330.896 160.28C328.656 159.768 325.744 159.512 322.16 159.512ZM340.592 141.848C340.592 138.712 339.28 136.312 336.656 134.648C334.032 132.92 330.896 132.056 327.248 132.056C323.6 132.056 320.464 132.152 317.84 132.344V155.864C323.408 155.864 327.856 156.024 331.184 156.344C333.68 155 335.856 153.048 337.712 150.488C339.632 147.864 340.592 144.984 340.592 141.848ZM367.978 191V128.696H372.394V186.968H401.002V191H367.978ZM413.623 191V128.696H418.039V191H413.623ZM440.611 191V128.312H442.723L483.619 175.352C485.091 177.016 486.435 178.68 487.651 180.344C488.931 181.944 489.603 182.776 489.667 182.84C489.539 181.304 489.475 178.296 489.475 173.816V128.696H493.891V191.384H491.779L450.115 143.576L444.835 137.144C444.963 138.424 445.027 141.432 445.027 146.168V191H440.611ZM536.412 187.736C544.604 187.736 551.164 185.528 556.092 181.112C561.084 176.696 563.58 170.04 563.58 161.144C563.58 152.248 560.764 145.176 555.132 139.928C549.564 134.68 542.684 132.056 534.492 132.056C528.668 132.056 524.188 132.184 521.052 132.44V187.064C524.892 187.512 530.012 187.736 536.412 187.736ZM534.492 128.12C544.092 128.12 552.092 131.096 558.492 137.048C564.956 142.936 568.188 150.968 568.188 161.144C568.188 171.32 565.212 178.968 559.26 184.088C553.372 189.208 545.756 191.768 536.412 191.768C529.948 191.768 523.292 191.448 516.444 190.808V128.696C521.564 128.312 527.58 128.12 534.492 128.12ZM586.933 191V128.696H618.901V132.536H591.349V155.192H616.501V158.936H591.349V191H586.933ZM662.098 191.96C653.202 191.96 645.746 188.856 639.73 182.648C633.714 176.44 630.706 168.856 630.706 159.896C630.706 150.872 633.714 143.256 639.73 137.048C645.746 130.84 653.202 127.736 662.098 127.736C670.994 127.736 678.45 130.84 684.466 137.048C690.482 143.256 693.49 150.872 693.49 159.896C693.49 168.856 690.482 176.44 684.466 182.648C678.45 188.856 670.994 191.96 662.098 191.96ZM662.098 131.672C654.418 131.672 648.018 134.392 642.898 139.832C637.842 145.272 635.314 151.96 635.314 159.896C635.314 167.768 637.842 174.424 642.898 179.864C648.018 185.24 654.418 187.928 662.098 187.928C669.842 187.928 676.242 185.24 681.298 179.864C686.354 174.424 688.882 167.768 688.882 159.896C688.882 151.96 686.354 145.272 681.298 139.832C676.242 134.392 669.842 131.672 662.098 131.672ZM712.254 191V128.696H716.67V186.968H745.278V191H712.254ZM777.867 187.736C786.059 187.736 792.619 185.528 797.547 181.112C802.539 176.696 805.035 170.04 805.035 161.144C805.035 152.248 802.219 145.176 796.587 139.928C791.019 134.68 784.139 132.056 775.947 132.056C770.123 132.056 765.643 132.184 762.507 132.44V187.064C766.347 187.512 771.467 187.736 777.867 187.736ZM775.947 128.12C785.547 128.12 793.547 131.096 799.947 137.048C806.411 142.936 809.643 150.968 809.643 161.144C809.643 171.32 806.667 178.968 800.715 184.088C794.827 189.208 787.211 191.768 777.867 191.768C771.403 191.768 764.747 191.448 757.899 190.808V128.696C763.019 128.312 769.035 128.12 775.947 128.12Z" fill="#E08A5F"/>
<path d="M313.424 128.984L313.34 127.988L312.424 128.065V128.984H313.424ZM339.728 131.864L339.166 132.691L339.173 132.696L339.728 131.864ZM335.696 157.592L335.198 156.725L333.165 157.894L335.415 158.552L335.696 157.592ZM346.064 164.12L345.312 164.78L345.312 164.78L346.064 164.12ZM344.912 187.256L344.287 186.475L344.28 186.481L344.912 187.256ZM313.424 190.808H312.424V191.72L313.332 191.804L313.424 190.808ZM322.16 159.512V158.512H322.149L322.138 158.512L322.16 159.512ZM317.84 159.608L317.818 158.608L316.84 158.63V159.608H317.84ZM317.84 187.16H316.84V188.071L317.747 188.156L317.84 187.16ZM341.456 184.088L342.107 184.847L342.108 184.846L341.456 184.088ZM341.456 165.944L340.749 166.651L340.757 166.66L340.766 166.668L341.456 165.944ZM330.896 160.28L331.139 159.31L331.129 159.307L331.119 159.305L330.896 160.28ZM336.656 134.648L336.106 135.483L336.113 135.488L336.12 135.493L336.656 134.648ZM317.84 132.344L317.767 131.347L316.84 131.414V132.344H317.84ZM317.84 155.864H316.84V156.864H317.84V155.864ZM331.184 156.344L331.088 157.339L331.391 157.368L331.658 157.224L331.184 156.344ZM337.712 150.488L336.905 149.897L336.902 149.901L337.712 150.488ZM313.508 129.98C318.023 129.599 322.667 129.408 327.44 129.408V127.408C322.613 127.408 317.913 127.601 313.34 127.988L313.508 129.98ZM327.44 129.408C332.075 129.408 335.967 130.518 339.166 132.691L340.29 131.037C336.705 128.602 332.405 127.408 327.44 127.408V129.408ZM339.173 132.696C342.331 134.801 343.912 137.837 343.912 141.944H345.912C345.912 137.219 344.037 133.535 340.283 131.032L339.173 132.696ZM343.912 141.944C343.912 145.081 343.071 147.967 341.38 150.623L343.068 151.697C344.961 148.721 345.912 145.463 345.912 141.944H343.912ZM341.38 150.623C339.664 153.321 337.6 155.344 335.198 156.725L336.194 158.459C338.912 156.896 341.2 154.631 343.068 151.697L341.38 150.623ZM335.415 158.552C339.401 159.717 342.691 161.792 345.312 164.78L346.816 163.46C343.933 160.176 340.311 157.899 335.977 156.632L335.415 158.552ZM345.312 164.78C347.913 167.743 349.192 171.064 349.192 174.776H351.192C351.192 170.552 349.719 166.769 346.816 163.46L345.312 164.78ZM349.192 174.776C349.192 180.05 347.518 183.891 344.287 186.475L345.537 188.037C349.346 184.989 351.192 180.51 351.192 174.776H349.192ZM344.28 186.481C341.065 189.101 336.425 190.48 330.224 190.48V192.48C336.695 192.48 341.847 191.043 345.544 188.031L344.28 186.481ZM330.224 190.48C323.91 190.48 318.342 190.257 313.516 189.812L313.332 191.804C318.234 192.255 323.866 192.48 330.224 192.48V190.48ZM314.424 190.808V128.984H312.424V190.808H314.424ZM322.138 158.512L317.818 158.608L317.862 160.608L322.182 160.512L322.138 158.512ZM316.84 159.608V187.16H318.84V159.608H316.84ZM317.747 188.156C320.549 188.416 325.037 188.544 331.184 188.544V186.544C325.043 186.544 320.635 186.416 317.933 186.164L317.747 188.156ZM331.184 188.544C335.539 188.544 339.207 187.333 342.107 184.847L340.805 183.329C338.329 185.451 335.149 186.544 331.184 186.544V188.544ZM342.108 184.846C345.073 182.295 346.584 179.078 346.584 175.256H344.584C344.584 178.474 343.343 181.145 340.804 183.33L342.108 184.846ZM346.584 175.256C346.584 171.38 345.083 168.02 342.146 165.22L340.766 166.668C343.333 169.116 344.584 171.964 344.584 175.256H346.584ZM342.163 165.237C339.325 162.399 335.634 160.434 331.139 159.31L330.653 161.25C334.862 162.302 338.211 164.113 340.749 166.651L342.163 165.237ZM331.119 159.305C328.777 158.77 325.782 158.512 322.16 158.512V160.512C325.706 160.512 328.535 160.766 330.673 161.255L331.119 159.305ZM341.592 141.848C341.592 138.373 340.108 135.653 337.192 133.803L336.12 135.493C338.452 136.971 339.592 139.051 339.592 141.848H341.592ZM337.206 133.813C334.394 131.961 331.059 131.056 327.248 131.056V133.056C330.733 133.056 333.67 133.879 336.106 135.483L337.206 133.813ZM327.248 131.056C323.584 131.056 320.423 131.152 317.767 131.347L317.913 133.341C320.505 133.152 323.616 133.056 327.248 133.056V131.056ZM316.84 132.344V155.864H318.84V132.344H316.84ZM317.84 156.864C323.394 156.864 327.806 157.024 331.088 157.339L331.28 155.349C327.906 155.024 323.422 154.864 317.84 154.864V156.864ZM331.658 157.224C334.301 155.801 336.588 153.743 338.522 151.075L336.902 149.901C335.124 152.353 333.059 154.199 330.71 155.464L331.658 157.224ZM338.519 151.079C340.559 148.29 341.592 145.205 341.592 141.848H339.592C339.592 144.763 338.705 147.438 336.905 149.897L338.519 151.079ZM367.978 191H366.978V192H367.978V191ZM367.978 128.696V127.696H366.978V128.696H367.978ZM372.394 128.696H373.394V127.696H372.394V128.696ZM372.394 186.968H371.394V187.968H372.394V186.968ZM401.002 186.968H402.002V185.968H401.002V186.968ZM401.002 191V192H402.002V191H401.002ZM368.978 191V128.696H366.978V191H368.978ZM367.978 129.696H372.394V127.696H367.978V129.696ZM371.394 128.696V186.968H373.394V128.696H371.394ZM372.394 187.968H401.002V185.968H372.394V187.968ZM400.002 186.968V191H402.002V186.968H400.002ZM401.002 190H367.978V192H401.002V190ZM413.623 191H412.623V192H413.623V191ZM413.623 128.696V127.696H412.623V128.696H413.623ZM418.039 128.696H419.039V127.696H418.039V128.696ZM418.039 191V192H419.039V191H418.039ZM414.623 191V128.696H412.623V191H414.623ZM413.623 129.696H418.039V127.696H413.623V129.696ZM417.039 128.696V191H419.039V128.696H417.039ZM418.039 190H413.623V192H418.039V190ZM440.611 191H439.611V192H440.611V191ZM440.611 128.312V127.312H439.611V128.312H440.611ZM442.723 128.312L443.478 127.656L443.179 127.312H442.723V128.312ZM483.619 175.352L482.865 176.008L482.87 176.015L483.619 175.352ZM487.651 180.344L486.844 180.934L486.857 180.952L486.87 180.969L487.651 180.344ZM489.667 182.84L488.96 183.547L490.891 185.478L490.664 182.757L489.667 182.84ZM489.475 128.696V127.696H488.475V128.696H489.475ZM493.891 128.696H494.891V127.696H493.891V128.696ZM493.891 191.384V192.384H494.891V191.384H493.891ZM491.779 191.384L491.025 192.041L491.324 192.384H491.779V191.384ZM450.115 143.576L449.342 144.21L449.352 144.222L449.361 144.233L450.115 143.576ZM444.835 137.144L445.608 136.51L443.511 133.955L443.84 137.243L444.835 137.144ZM445.027 191V192H446.027V191H445.027ZM441.611 191V128.312H439.611V191H441.611ZM440.611 129.312H442.723V127.312H440.611V129.312ZM441.969 128.968L482.865 176.008L484.374 174.696L443.478 127.656L441.969 128.968ZM482.87 176.015C484.323 177.657 485.648 179.297 486.844 180.934L488.459 179.754C487.223 178.063 485.859 176.375 484.368 174.689L482.87 176.015ZM486.87 180.969C487.511 181.769 488 182.378 488.337 182.796C488.506 183.005 488.638 183.168 488.733 183.283C488.804 183.37 488.9 183.487 488.96 183.547L490.374 182.133C490.403 182.161 490.391 182.15 490.278 182.013C490.189 181.904 490.061 181.747 489.893 181.54C489.559 181.126 489.072 180.519 488.432 179.719L486.87 180.969ZM490.664 182.757C490.54 181.269 490.475 178.302 490.475 173.816H488.475C488.475 178.29 488.539 181.339 488.671 182.923L490.664 182.757ZM490.475 173.816V128.696H488.475V173.816H490.475ZM489.475 129.696H493.891V127.696H489.475V129.696ZM492.891 128.696V191.384H494.891V128.696H492.891ZM493.891 190.384H491.779V192.384H493.891V190.384ZM492.533 190.727L450.869 142.919L449.361 144.233L491.025 192.041L492.533 190.727ZM450.888 142.942L445.608 136.51L444.062 137.778L449.342 144.21L450.888 142.942ZM443.84 137.243C443.962 138.463 444.027 141.416 444.027 146.168H446.027C446.027 141.448 445.964 138.385 445.83 137.044L443.84 137.243ZM444.027 146.168V191H446.027V146.168H444.027ZM445.027 190H440.611V192H445.027V190ZM556.092 181.112L555.429 180.363L555.424 180.367L556.092 181.112ZM555.132 139.928L554.446 140.656L554.45 140.66L555.132 139.928ZM521.052 132.44L520.97 131.443L520.052 131.518V132.44H521.052ZM521.052 187.064H520.052V187.954L520.936 188.057L521.052 187.064ZM558.492 137.048L557.811 137.78L557.818 137.787L558.492 137.048ZM559.26 184.088L558.608 183.33L558.604 183.333L559.26 184.088ZM516.444 190.808H515.444V191.719L516.351 191.804L516.444 190.808ZM516.444 128.696L516.369 127.699L515.444 127.768V128.696H516.444ZM536.412 188.736C544.789 188.736 551.607 186.474 556.759 181.857L555.424 180.367C550.721 184.582 544.419 186.736 536.412 186.736V188.736ZM556.754 181.861C562.026 177.197 564.58 170.225 564.58 161.144H562.58C562.58 169.855 560.141 176.195 555.429 180.363L556.754 181.861ZM564.58 161.144C564.58 152.018 561.681 144.664 555.813 139.196L554.45 140.66C559.847 145.688 562.58 152.478 562.58 161.144H564.58ZM555.818 139.2C550.05 133.764 542.919 131.056 534.492 131.056V133.056C542.449 133.056 549.077 135.596 554.446 140.656L555.818 139.2ZM534.492 131.056C528.659 131.056 524.147 131.184 520.97 131.443L521.133 133.437C524.228 133.184 528.676 133.056 534.492 133.056V131.056ZM520.052 132.44V187.064H522.052V132.44H520.052ZM520.936 188.057C524.831 188.512 529.995 188.736 536.412 188.736V186.736C530.029 186.736 524.952 186.512 521.168 186.071L520.936 188.057ZM534.492 129.12C543.866 129.12 551.615 132.018 557.811 137.78L559.173 136.316C552.569 130.174 544.317 127.12 534.492 127.12V129.12ZM557.818 137.787C564.04 143.454 567.188 151.199 567.188 161.144H569.188C569.188 150.737 565.872 142.418 559.165 136.309L557.818 137.787ZM567.188 161.144C567.188 171.121 564.277 178.453 558.608 183.33L559.912 184.846C566.146 179.483 569.188 171.519 569.188 161.144H567.188ZM558.604 183.333C552.932 188.265 545.565 190.768 536.412 190.768V192.768C545.947 192.768 553.811 190.151 559.916 184.843L558.604 183.333ZM536.412 190.768C529.981 190.768 523.356 190.45 516.537 189.812L516.351 191.804C523.228 192.446 529.915 192.768 536.412 192.768V190.768ZM517.444 190.808V128.696H515.444V190.808H517.444ZM516.519 129.693C521.607 129.312 527.597 129.12 534.492 129.12V127.12C527.563 127.12 521.521 127.312 516.369 127.699L516.519 129.693ZM586.933 191H585.933V192H586.933V191ZM586.933 128.696V127.696H585.933V128.696H586.933ZM618.901 128.696H619.901V127.696H618.901V128.696ZM618.901 132.536V133.536H619.901V132.536H618.901ZM591.349 132.536V131.536H590.349V132.536H591.349ZM591.349 155.192H590.349V156.192H591.349V155.192ZM616.501 155.192H617.501V154.192H616.501V155.192ZM616.501 158.936V159.936H617.501V158.936H616.501ZM591.349 158.936V157.936H590.349V158.936H591.349ZM591.349 191V192H592.349V191H591.349ZM587.933 191V128.696H585.933V191H587.933ZM586.933 129.696H618.901V127.696H586.933V129.696ZM617.901 128.696V132.536H619.901V128.696H617.901ZM618.901 131.536H591.349V133.536H618.901V131.536ZM590.349 132.536V155.192H592.349V132.536H590.349ZM591.349 156.192H616.501V154.192H591.349V156.192ZM615.501 155.192V158.936H617.501V155.192H615.501ZM616.501 157.936H591.349V159.936H616.501V157.936ZM590.349 158.936V191H592.349V158.936H590.349ZM591.349 190H586.933V192H591.349V190ZM639.73 182.648L640.448 181.952L639.73 182.648ZM639.73 137.048L640.448 137.744L640.448 137.744L639.73 137.048ZM684.466 137.048L685.184 136.352L685.184 136.352L684.466 137.048ZM684.466 182.648L685.184 183.344L685.184 183.344L684.466 182.648ZM642.898 139.832L642.17 139.147L642.166 139.151L642.898 139.832ZM642.898 179.864L642.166 180.545L642.174 180.554L642.898 179.864ZM681.298 179.864L682.027 180.549L682.031 180.545L681.298 179.864ZM681.298 139.832L682.031 139.151L682.031 139.151L681.298 139.832ZM662.098 190.96C653.464 190.96 646.27 187.959 640.448 181.952L639.012 183.344C645.223 189.753 652.94 192.96 662.098 192.96V190.96ZM640.448 181.952C634.62 175.938 631.706 168.607 631.706 159.896H629.706C629.706 169.105 632.808 176.942 639.012 183.344L640.448 181.952ZM631.706 159.896C631.706 151.119 634.622 143.756 640.448 137.744L639.012 136.352C632.807 142.756 629.706 150.625 629.706 159.896H631.706ZM640.448 137.744C646.27 131.737 653.464 128.736 662.098 128.736V126.736C652.94 126.736 645.223 129.943 639.012 136.352L640.448 137.744ZM662.098 128.736C670.732 128.736 677.927 131.737 683.748 137.744L685.184 136.352C678.974 129.943 671.256 126.736 662.098 126.736V128.736ZM683.748 137.744C689.575 143.756 692.49 151.119 692.49 159.896H694.49C694.49 150.625 691.39 142.756 685.184 136.352L683.748 137.744ZM692.49 159.896C692.49 168.607 689.576 175.938 683.748 181.952L685.184 183.344C691.388 176.942 694.49 169.105 694.49 159.896H692.49ZM683.748 181.952C677.927 187.959 670.732 190.96 662.098 190.96V192.96C671.256 192.96 678.974 189.753 685.184 183.344L683.748 181.952ZM662.098 130.672C654.151 130.672 647.485 133.5 642.17 139.147L643.626 140.517C648.552 135.284 654.685 132.672 662.098 132.672V130.672ZM642.166 139.151C636.925 144.79 634.314 151.726 634.314 159.896H636.314C636.314 152.194 638.759 145.754 643.631 140.513L642.166 139.151ZM634.314 159.896C634.314 168.004 636.927 174.908 642.166 180.545L643.631 179.183C638.758 173.94 636.314 167.532 636.314 159.896H634.314ZM642.174 180.554C647.49 186.135 654.155 188.928 662.098 188.928V186.928C654.681 186.928 648.546 184.345 643.622 179.174L642.174 180.554ZM662.098 188.928C670.103 188.928 676.771 186.137 682.027 180.549L680.57 179.179C675.713 184.343 669.582 186.928 662.098 186.928V188.928ZM682.031 180.545C687.27 174.908 689.882 168.004 689.882 159.896H687.882C687.882 167.532 685.439 173.94 680.566 179.183L682.031 180.545ZM689.882 159.896C689.882 151.726 687.271 144.79 682.031 139.151L680.566 140.513C685.437 145.754 687.882 152.194 687.882 159.896H689.882ZM682.031 139.151C676.777 133.498 670.107 130.672 662.098 130.672V132.672C669.578 132.672 675.708 135.286 680.566 140.513L682.031 139.151ZM712.254 191H711.254V192H712.254V191ZM712.254 128.696V127.696H711.254V128.696H712.254ZM716.67 128.696H717.67V127.696H716.67V128.696ZM716.67 186.968H715.67V187.968H716.67V186.968ZM745.278 186.968H746.278V185.968H745.278V186.968ZM745.278 191V192H746.278V191H745.278ZM713.254 191V128.696H711.254V191H713.254ZM712.254 129.696H716.67V127.696H712.254V129.696ZM715.67 128.696V186.968H717.67V128.696H715.67ZM716.67 187.968H745.278V185.968H716.67V187.968ZM744.278 186.968V191H746.278V186.968H744.278ZM745.278 190H712.254V192H745.278V190ZM797.547 181.112L796.884 180.363L796.879 180.367L797.547 181.112ZM796.587 139.928L795.901 140.656L795.905 140.66L796.587 139.928ZM762.507 132.44L762.425 131.443L761.507 131.518V132.44H762.507ZM762.507 187.064H761.507V187.954L762.391 188.057L762.507 187.064ZM799.947 137.048L799.266 137.78L799.273 137.787L799.947 137.048ZM800.715 184.088L800.063 183.33L800.059 183.333L800.715 184.088ZM757.899 190.808H756.899V191.719L757.806 191.804L757.899 190.808ZM757.899 128.696L757.824 127.699L756.899 127.768V128.696H757.899ZM777.867 188.736C786.244 188.736 793.062 186.474 798.214 181.857L796.879 180.367C792.176 184.582 785.874 186.736 777.867 186.736V188.736ZM798.209 181.861C803.481 177.197 806.035 170.225 806.035 161.144H804.035C804.035 169.855 801.596 176.195 796.884 180.363L798.209 181.861ZM806.035 161.144C806.035 152.018 803.136 144.664 797.268 139.196L795.905 140.66C801.302 145.688 804.035 152.478 804.035 161.144H806.035ZM797.273 139.2C791.505 133.764 784.374 131.056 775.947 131.056V133.056C783.904 133.056 790.532 135.596 795.901 140.656L797.273 139.2ZM775.947 131.056C770.114 131.056 765.602 131.184 762.425 131.443L762.588 133.437C765.683 133.184 770.131 133.056 775.947 133.056V131.056ZM761.507 132.44V187.064H763.507V132.44H761.507ZM762.391 188.057C766.286 188.512 771.45 188.736 777.867 188.736V186.736C771.484 186.736 766.407 186.512 762.623 186.071L762.391 188.057ZM775.947 129.12C785.321 129.12 793.07 132.018 799.266 137.78L800.628 136.316C794.024 130.174 785.772 127.12 775.947 127.12V129.12ZM799.273 137.787C805.495 143.454 808.643 151.199 808.643 161.144H810.643C810.643 150.737 807.327 142.418 800.62 136.309L799.273 137.787ZM808.643 161.144C808.643 171.121 805.732 178.453 800.063 183.33L801.367 184.846C807.601 179.483 810.643 171.519 810.643 161.144H808.643ZM800.059 183.333C794.387 188.265 787.02 190.768 777.867 190.768V192.768C787.402 192.768 795.266 190.151 801.371 184.843L800.059 183.333ZM777.867 190.768C771.436 190.768 764.811 190.45 757.992 189.812L757.806 191.804C764.683 192.446 771.37 192.768 777.867 192.768V190.768ZM758.899 190.808V128.696H756.899V190.808H758.899ZM757.974 129.693C763.062 129.312 769.052 129.12 775.947 129.12V127.12C769.018 127.12 762.976 127.312 757.824 127.699L757.974 129.693Z" fill="#E08A5F"/>
</g>
<defs>
<clipPath id="clip0_9_4">
<rect width="891" height="300" fill="white"/>
</clipPath>
</defs>
</svg>
