<svg width="359" height="338" viewBox="0 0 359 338" fill="none" xmlns="http://www.w3.org/2000/svg">
<g clip-path="url(#clip0_11_17)">
<rect width="359" height="338" fill="white"/>
<path d="M186.326 49.047C132.432 49.6362 86.7294 97.4051 97.7038 138.739C99.5909 139.716 101.411 140.898 103.147 142.235C160.371 130.235 216.067 120.572 269.741 101.886C267.075 95.2777 264.328 86.404 260.582 82.7767C237.196 58.3255 210.91 48.7778 186.327 49.0465L186.326 49.047ZM285.043 107.511C228.656 128.66 170.7 138.993 111.902 151.176C113.722 153.68 115.199 156.381 116.093 159.24C126.219 159.565 136.281 159.792 146.299 159.93C147.702 153.228 152.311 146.98 160.013 143.939L160.218 143.858L160.429 143.794C162.877 143.043 165.326 142.745 167.672 142.829C170.019 142.91 172.263 143.375 174.3 144.148C178.378 145.695 181.65 148.292 184.37 151.132C187.038 153.918 189.244 157.006 191.073 159.891C225.423 159.313 259.39 157.432 293.431 153.898C293.42 151.685 293.405 149.511 293.373 147.373C283.077 146.463 270.971 147.169 254.43 151.832C268.269 144.883 278.581 140.481 291.288 140.602C291.913 140.608 292.544 140.624 293.181 140.652C292.909 134.402 292.313 128.448 290.966 122.725C270.616 134.264 253.103 136.41 226.697 138.057C257.163 131.936 274.609 124.058 288.883 115.75C287.855 112.957 286.597 110.213 285.045 107.511H285.043ZM87.4747 146.412C87.0611 146.409 86.7773 146.464 86.5954 146.524C83.7112 147.928 80.684 151.883 79.3074 156.675C77.9642 161.349 78.3553 166.366 79.9041 169.273C82.7028 171.932 88.5771 173.012 94.5589 171.886C100.429 170.781 105.001 167.393 105.997 165.647C106.018 162.177 102.971 156.282 98.2714 152.034C95.7972 149.796 93.0222 148.035 90.7415 147.139C89.6014 146.691 88.6529 146.494 87.9337 146.431C87.7658 146.417 87.6123 146.411 87.4753 146.41L87.4747 146.412ZM167.372 153.251C166.357 153.207 165.265 153.344 164.001 153.708C159.034 155.726 157.32 158.611 156.815 163.061C156.303 167.568 157.803 173.617 160.855 179.25C163.908 184.882 168.452 190.067 173.064 193.18C177.675 196.293 181.851 197.23 185.337 196.098L188.836 206.014C181.136 208.515 173.198 206.072 166.78 201.741C160.363 197.408 154.964 191.08 151.169 184.077C148.808 179.721 147.045 175.092 146.252 170.425C136.278 170.285 126.264 170.061 116.192 169.74C114.879 172.778 112.687 175.172 109.978 177.047C113.508 183.933 117.747 190.419 122.78 196.47L124.355 198.361L123.873 200.736C120.206 218.77 115.462 237.156 101.453 248.763C120.724 279.365 144.395 303.853 192.887 308.453C197.445 292.804 201.468 274.807 229.566 256.28L231.034 255.313L232.815 255.362C257.551 256.048 270.271 252.018 276.241 244.599C278.862 241.342 280.495 236.95 281.196 231.312L257.521 230.848L257.743 220.382L281.509 220.848C281.285 215.721 280.591 209.91 279.435 203.354L278.376 197.348L300.331 197.007C299.639 193.02 297.911 187.484 295.303 182.329C291.533 174.868 285.87 167.846 283.706 166.405L282.419 165.546C251.954 168.365 221.531 169.897 190.837 170.4C186.198 172.682 187.377 172.08 186.099 172.766C183.575 168.445 180.293 162.353 176.33 158.215C174.347 156.144 172.271 154.636 170.285 153.882C169.324 153.519 168.385 153.295 167.37 153.25L167.372 153.251ZM72.0886 176.636C67.8715 184.796 63.3222 194.196 58.4441 203.561C52.95 214.114 47.0519 224.614 40.5608 233.377C35.6245 240.04 30.3754 245.793 24.3306 249.647C30.3123 257.717 35.2382 264.465 39.2812 270.394C41.9155 263.393 44.9743 256.095 48.2162 248.653C55.0021 233.08 62.5502 216.965 68.4428 202.387C71.7356 194.238 74.4791 186.529 76.3141 179.791C74.7969 178.945 73.376 177.901 72.0874 176.634L72.0886 176.636ZM95.1889 182.405C92.4692 182.818 89.6366 182.97 86.841 182.76C84.8519 190.044 81.9653 197.896 78.6209 206.172C72.5737 221.132 64.9935 237.298 58.2877 252.69C51.5807 268.082 45.7681 282.751 43.2266 294.212C41.9556 299.944 41.5359 304.857 41.9938 308.435C42.0629 308.975 42.1757 309.412 42.2745 309.885C44.1526 308.559 46.195 307.419 48.5146 306.455C54.6698 303.9 62.3185 302.089 69.9406 300.781C77.5621 299.474 85.0793 298.714 90.8391 298.538C91.4273 298.521 91.9125 298.535 92.4607 298.528C86.1587 264.43 91.1423 215.511 95.1895 182.407L95.1889 182.405Z" fill="black"/>
</g>
<defs>
<clipPath id="clip0_11_17">
<rect width="359" height="338" fill="white"/>
</clipPath>
</defs>
</svg>
