<?xml version="1.0" encoding="UTF-8"?>
<svg xmlns="http://www.w3.org/2000/svg" xmlns:xlink="http://www.w3.org/1999/xlink" viewBox="0 0 96 96" width="96px" height="96px">
<g id="surface29634071">
<path style=" stroke:none;fill-rule:nonzero;fill:rgb(87.843138%,54.11765%,37.254903%);fill-opacity:1;" d="M 86.328125 24.742188 C 85.40625 21.304688 82.695312 18.59375 79.257812 17.671875 C 73.015625 16 48 16 48 16 C 48 16 22.984375 16 16.742188 17.671875 C 13.304688 18.59375 10.59375 21.304688 9.671875 24.742188 C 8 30.984375 8 48 8 48 C 8 48 8 65.015625 9.671875 71.257812 C 10.59375 74.695312 13.304688 77.40625 16.742188 78.328125 C 22.984375 80 48 80 48 80 C 48 80 73.015625 80 79.257812 78.328125 C 82.699219 77.40625 85.40625 74.695312 86.328125 71.257812 C 88 65.015625 88 48 88 48 C 88 48 88 30.984375 86.328125 24.742188 Z M 40 61.855469 L 40 34.144531 L 64 48 Z M 40 61.855469 "/>
</g>
</svg>
