<?xml version="1.0" encoding="UTF-8"?>
<svg xmlns="http://www.w3.org/2000/svg" xmlns:xlink="http://www.w3.org/1999/xlink" viewBox="0 0 104 104" width="104px" height="104px">
<g id="surface29675875">
<path style=" stroke:none;fill-rule:nonzero;fill:rgb(87.843138%,54.11765%,37.254903%);fill-opacity:1;" d="M 103.421875 22.296875 C 99.65625 23.96875 95.609375 25.09375 91.359375 25.609375 C 95.6875 23 99.03125 18.890625 100.59375 13.984375 C 96.53125 16.390625 92.03125 18.140625 87.25 19.078125 C 83.421875 15 77.96875 12.453125 71.921875 12.453125 C 60.328125 12.453125 50.921875 21.859375 50.921875 33.453125 C 50.921875 35.09375 51.109375 36.703125 51.46875 38.234375 C 34.015625 37.359375 18.546875 28.984375 8.1875 16.28125 C 6.375 19.390625 5.34375 23 5.34375 26.859375 C 5.34375 34.140625 9.046875 40.5625 14.6875 44.328125 C 11.234375 44.21875 8 43.28125 5.171875 41.703125 C 5.171875 41.796875 5.171875 41.875 5.171875 41.96875 C 5.171875 52.140625 12.40625 60.625 22.015625 62.5625 C 20.25 63.046875 18.40625 63.296875 16.484375 63.296875 C 15.125 63.296875 13.8125 63.171875 12.53125 62.921875 C 15.203125 71.25 22.953125 77.34375 32.140625 77.5 C 24.96875 83.140625 15.90625 86.484375 6.0625 86.484375 C 4.359375 86.484375 2.703125 86.390625 1.0625 86.203125 C 10.34375 92.15625 21.390625 95.625 33.25 95.625 C 71.875 95.625 93 63.625 93 35.890625 C 93 34.96875 92.984375 34.0625 92.9375 33.15625 C 97.046875 30.21875 100.609375 26.515625 103.421875 22.296875 "/>
</g>
</svg>
