<?xml version="1.0" encoding="UTF-8"?>
<svg xmlns="http://www.w3.org/2000/svg" xmlns:xlink="http://www.w3.org/1999/xlink" viewBox="0 0 104 104" width="104px" height="104px">
<g id="surface29707021">
<path style=" stroke:none;fill-rule:nonzero;fill:rgb(87.843138%,54.11765%,37.254903%);fill-opacity:1;" d="M 52 0 C 23.28125 0 0 23.28125 0 52 C 0 78.070312 19.203125 99.597656 44.226562 103.355469 L 44.226562 65.78125 L 31.359375 65.78125 L 31.359375 52.113281 L 44.226562 52.113281 L 44.226562 43.015625 C 44.226562 27.957031 51.5625 21.347656 64.078125 21.347656 C 70.070312 21.347656 73.242188 21.792969 74.742188 21.996094 L 74.742188 33.929688 L 66.207031 33.929688 C 60.894531 33.929688 59.039062 38.964844 59.039062 44.644531 L 59.039062 52.117188 L 74.613281 52.117188 L 72.5 65.785156 L 59.039062 65.785156 L 59.039062 103.472656 C 84.421875 100.023438 104 78.324219 104 52 C 104 23.28125 80.71875 0 52 0 Z M 52 0 "/>
</g>
</svg>
